<?xml version="1.0" encoding="UTF-8" standalone="no"?>
<!-- Created with Inkscape (http://www.inkscape.org/) -->

<svg
   width="36.818424mm"
   height="37.178455mm"
   viewBox="0 0 36.818424 37.178455"
   version="1.1"
   id="svg1"
   xml:space="preserve"
   xmlns="http://www.w3.org/2000/svg"
   xmlns:svg="http://www.w3.org/2000/svg"><defs
     id="defs1" /><g
     id="layer1"
     transform="translate(-156.41823,-98.775767)"><path
       style="fill:#000000"
       d="m 156.52576,135.42669 c -0.10102,-0.26324 -0.1374,-1.89481 -0.0809,-3.6257 l 0.10281,-3.14708 h 5.11528 5.11528 v 3.52778 3.52778 l -5.03443,0.0979 c -3.98182,0.0774 -5.07282,-0.002 -5.21808,-0.3807 z m 13.11247,-0.0989 c -0.39354,-1.02556 -0.23209,-5.98568 0.2092,-6.42698 0.58775,-0.58775 9.5017,-0.58775 10.08945,0 0.44129,0.4413 0.60274,5.40142 0.2092,6.42698 -0.32051,0.83523 -10.18734,0.83523 -10.50785,0 z m 13.34586,0.0989 c -0.10101,-0.26324 -0.1374,-1.89481 -0.0808,-3.6257 l 0.1028,-3.14708 h 5.11528 5.11528 v 3.52778 3.52778 l -5.03442,0.0979 c -3.98182,0.0774 -5.07282,-0.002 -5.21809,-0.3807 z m -26.45833,-9.87778 c -0.10102,-0.26324 -0.1374,-1.8948 -0.0809,-3.6257 l 0.10281,-3.14708 h 5.11528 5.11528 v 3.52778 3.52778 l -5.03443,0.0979 c -3.98182,0.0774 -5.07282,-0.002 -5.21808,-0.3807 z m 13.11247,-0.0988 c -0.39354,-1.02557 -0.23209,-5.98569 0.2092,-6.42698 0.58775,-0.58775 9.5017,-0.58775 10.08945,0 0.44129,0.44129 0.60274,5.40141 0.2092,6.42698 -0.32051,0.83522 -10.18734,0.83522 -10.50785,0 z m 13.34586,0.0988 c -0.10101,-0.26324 -0.1374,-1.8948 -0.0808,-3.6257 l 0.1028,-3.14708 h 5.11528 5.11528 v 3.52778 3.52778 l -5.03442,0.0979 c -3.98182,0.0774 -5.07282,-0.002 -5.21809,-0.3807 z m -26.45833,-9.87777 c -0.10102,-0.26325 -0.1374,-1.89481 -0.0809,-3.62571 l 0.10281,-3.14708 h 5.11528 5.11528 v 3.52778 3.52778 l -5.03443,0.0979 c -3.98182,0.0775 -5.07282,-0.002 -5.21808,-0.38069 z m 13.32167,0.0358 c -0.44129,-0.44129 -0.60274,-5.40141 -0.2092,-6.42698 0.32051,-0.83522 10.18734,-0.83522 10.50785,0 0.39354,1.02557 0.23209,5.98569 -0.2092,6.42698 -0.58775,0.58776 -9.5017,0.58776 -10.08945,0 z m 13.13666,-0.0358 c -0.10101,-0.26325 -0.1374,-1.89481 -0.0808,-3.62571 l 0.1028,-3.14708 h 5.11528 5.11528 v 3.52778 3.52778 l -5.03442,0.0979 c -3.98182,0.0775 -5.07282,-0.002 -5.21809,-0.38069 z m -26.45833,-9.87778 c -0.10102,-0.26324 -0.1374,-1.89481 -0.0809,-3.6257 l 0.10281,-3.147079 h 5.11528 5.11528 v 3.527769 3.52778 l -5.03443,0.0979 c -3.98182,0.0774 -5.07282,-0.002 -5.21808,-0.3807 z m 13.32167,0.0358 c -0.44129,-0.4413 -0.60274,-5.40142 -0.2092,-6.426979 0.32051,-0.83523 10.18734,-0.83523 10.50785,0 0.39354,1.025559 0.23209,5.985679 -0.2092,6.426979 -0.58775,0.58775 -9.5017,0.58775 -10.08945,0 z m 13.13666,-0.0358 c -0.10101,-0.26324 -0.1374,-1.89481 -0.0808,-3.6257 l 0.1028,-3.147079 h 5.11528 5.11528 v 3.527769 3.52778 l -5.03442,0.0979 c -3.98182,0.0774 -5.07282,-0.002 -5.21809,-0.3807 z"
       id="path4" /></g></svg>
