<svg width="359" height="317" viewBox="0 0 359 317" fill="none" xmlns="http://www.w3.org/2000/svg">
<path d="M43.1696 31.5697C43.1694 25.8573 38.6695 21.1767 33.025 20.8998H33.024C32.8492 20.8906 32.6817 20.89 32.4899 20.89C26.5967 20.89 21.8201 25.6754 21.8199 31.5697C21.8199 37.4635 26.596 42.2396 32.4899 42.2396C32.6817 42.2396 32.8492 42.24 33.024 42.2308H33.025C38.6702 41.9538 43.1696 37.2816 43.1696 31.5697ZM44.1696 31.5697C44.1696 37.8176 39.2495 42.9267 33.0748 43.2298L33.0739 43.2289C32.8695 43.2395 32.6773 43.2396 32.4899 43.2396C26.0438 43.2396 20.8199 38.0158 20.8199 31.5697C20.8201 25.1243 26.0433 19.89 32.4899 19.89C32.6779 19.89 32.8708 19.89 33.0758 19.9007L33.0748 19.9017C39.2499 20.205 44.1694 25.3225 44.1696 31.5697Z" fill="#130503"/>
<path d="M325.84 62.62C325.11 62.62 324.37 62.59 323.64 62.53H35.27C34.54 62.59 33.79 62.62 33.05 62.62C16.47 62.62 2.98999 49.14 2.98999 32.56C2.98999 15.98 16.47 2.5 33.05 2.5C43.45 2.5 53.09 7.89 58.56 16.66H300.33C305.8 7.89 315.45 2.5 325.85 2.5C342.42 2.5 355.9 15.98 355.9 32.56C355.9 49.14 342.42 62.62 325.85 62.62H325.84Z" fill="#F4B65F"/>
<path d="M325.84 5C341.06 5 353.39 17.34 353.39 32.56C353.39 47.78 341.06 60.12 325.84 60.12C325.14 60.12 324.44 60.09 323.75 60.03H35.17C34.47 60.09 33.76 60.12 33.05 60.12C17.83 60.12 5.48999 47.78 5.48999 32.56C5.48999 17.34 17.83 5 33.05 5C43.41 5 52.43 10.71 57.13 19.16H301.75C306.46 10.71 315.48 5 325.84 5ZM325.84 0C315.05 0 305.01 5.36 298.97 14.16H59.91C53.88 5.36 43.84 0 33.05 0C15.1 0 0.48999 14.61 0.48999 32.56C0.48999 50.51 15.1 65.12 33.05 65.12C33.83 65.12 34.61 65.09 35.37 65.03H323.54C324.3 65.09 325.07 65.12 325.84 65.12C343.79 65.12 358.39 50.51 358.39 32.56C358.39 14.61 343.79 0 325.84 0Z" fill="#130503"/>
<path d="M32.4899 45.24C24.9499 45.24 18.8199 39.11 18.8199 31.57C18.8199 24.03 24.9499 17.89 32.4899 17.89C32.7199 17.89 32.9499 17.89 33.1799 17.9C40.4599 18.26 46.1699 24.26 46.1699 31.57C46.1699 38.88 40.4599 44.87 33.1699 45.23C32.9399 45.24 32.7199 45.24 32.4899 45.24Z" fill="#FEF7F6"/>
<path d="M32.4899 20.39C32.6799 20.39 32.8599 20.39 33.0499 20.4C38.9599 20.69 43.6699 25.59 43.6699 31.57C43.6699 37.55 38.9599 42.44 33.0499 42.73C32.8599 42.74 32.6799 42.74 32.4899 42.74C26.3199 42.74 21.3199 37.74 21.3199 31.57C21.3199 25.4 26.3199 20.39 32.4899 20.39ZM32.4899 15.39C23.5699 15.39 16.3199 22.65 16.3199 31.57C16.3199 40.49 23.5699 47.74 32.4899 47.74C32.7699 47.74 33.0299 47.74 33.3099 47.72C41.9099 47.3 48.6699 40.2 48.6699 31.57C48.6699 22.94 41.9199 15.83 33.2999 15.41C33.0399 15.4 32.7699 15.39 32.4899 15.39Z" fill="#130503"/>
<path d="M325.28 45.24C324.67 45.24 324.04 45.2 323.4 45.11C316.67 44.2 311.6 38.38 311.6 31.57C311.6 24.76 316.68 18.94 323.41 18.02C324.04 17.93 324.67 17.89 325.28 17.89C332.82 17.89 338.95 24.03 338.95 31.57C338.95 39.11 332.82 45.24 325.28 45.24Z" fill="#FEF7F6"/>
<path d="M325.28 20.39C331.45 20.39 336.45 25.4 336.45 31.57C336.45 37.74 331.45 42.74 325.28 42.74C324.76 42.74 324.25 42.7 323.75 42.63C318.3 41.89 314.1 37.22 314.1 31.57C314.1 25.92 318.3 21.24 323.75 20.5C324.25 20.43 324.76 20.39 325.28 20.39ZM325.28 15.39C324.56 15.39 323.81 15.44 323.06 15.55C315.11 16.63 309.1 23.52 309.1 31.57C309.1 39.62 315.11 46.5 323.08 47.58C323.81 47.68 324.56 47.74 325.28 47.74C334.2 47.74 341.45 40.49 341.45 31.57C341.45 22.65 334.2 15.39 325.28 15.39Z" fill="#130503"/>
<path d="M325.35 313.83C314.95 313.83 305.31 308.44 299.83 299.67H58.07C52.6 308.44 42.96 313.83 32.56 313.83C15.98 313.83 2.5 300.34 2.5 283.77C2.5 267.2 15.98 253.71 32.56 253.71C33.31 253.71 34.06 253.74 34.78 253.8H323.15C323.87 253.74 324.61 253.71 325.35 253.71C341.92 253.71 355.4 267.19 355.4 283.77C355.4 300.35 341.92 313.83 325.35 313.83Z" fill="#F4B65F"/>
<path d="M325.35 256.21C340.57 256.21 352.9 268.55 352.9 283.77C352.9 298.99 340.57 311.33 325.35 311.33C314.99 311.33 305.97 305.62 301.26 297.17H56.64C51.94 305.62 42.92 311.33 32.56 311.33C17.34 311.33 5 298.99 5 283.77C5 268.55 17.34 256.21 32.56 256.21C33.27 256.21 33.98 256.24 34.68 256.3H323.26C323.95 256.24 324.65 256.21 325.35 256.21ZM325.35 251.21C324.58 251.21 323.81 251.24 323.05 251.3H34.88C34.11 251.24 33.33 251.21 32.56 251.21C14.61 251.21 0 265.82 0 283.77C0 301.72 14.61 316.33 32.56 316.33C43.35 316.33 53.39 310.97 59.42 302.17H298.48C304.52 310.97 314.56 316.33 325.35 316.33C343.3 316.33 357.9 301.72 357.9 283.77C357.9 265.82 343.3 251.21 325.35 251.21Z" fill="#130503"/>
<path d="M32.59 296.75C25.05 296.75 18.92 290.61 18.92 283.07C18.92 275.53 25.05 269.4 32.59 269.4C32.82 269.4 33.05 269.4 33.28 269.41C40.56 269.77 46.27 275.77 46.27 283.07C46.27 290.37 40.56 296.38 33.27 296.74C33.05 296.75 32.83 296.75 32.59 296.75Z" fill="#FEF7F6"/>
<path d="M32.59 271.9C32.78 271.9 32.96 271.9 33.15 271.91C39.06 272.2 43.77 277.09 43.77 283.07C43.77 289.05 39.06 293.95 33.15 294.24C32.96 294.25 32.78 294.25 32.59 294.25C26.42 294.25 21.42 289.24 21.42 283.07C21.42 276.9 26.42 271.9 32.59 271.9ZM32.59 266.9C23.67 266.9 16.42 274.15 16.42 283.07C16.42 291.99 23.67 299.25 32.59 299.25C32.87 299.25 33.13 299.25 33.41 299.23C42.01 298.81 48.77 291.71 48.77 283.07C48.77 274.43 42.02 267.34 33.4 266.92C33.14 266.91 32.87 266.9 32.59 266.9Z" fill="#130503"/>
<path d="M325.3 296.94C324.69 296.94 324.06 296.9 323.42 296.81C316.7 295.9 311.62 290.07 311.62 283.26C311.62 276.45 316.7 270.64 323.43 269.72C324.05 269.63 324.69 269.59 325.3 269.59C332.84 269.59 338.97 275.72 338.97 283.26C338.97 290.8 332.84 296.94 325.3 296.94Z" fill="#FEF7F6"/>
<path d="M325.3 272.08C331.47 272.08 336.47 277.08 336.47 283.25C336.47 289.42 331.47 294.43 325.3 294.43C324.78 294.43 324.27 294.39 323.77 294.32C318.32 293.58 314.12 288.9 314.12 283.25C314.12 277.6 318.32 272.93 323.77 272.19C324.27 272.12 324.78 272.08 325.3 272.08ZM325.3 267.08C324.58 267.08 323.83 267.13 323.08 267.24C315.13 268.32 309.12 275.2 309.12 283.25C309.12 291.3 315.13 298.19 323.1 299.27C323.83 299.37 324.58 299.43 325.3 299.43C334.22 299.43 341.47 292.17 341.47 283.25C341.47 274.33 334.22 267.08 325.3 267.08Z" fill="#130503"/>
<path d="M335.95 31.5697C335.949 25.6754 331.173 20.89 325.28 20.89C324.786 20.89 324.299 20.9284 323.82 20.9955H323.817C318.612 21.7024 314.6 26.1731 314.6 31.5697C314.6 36.9658 318.611 41.4271 323.817 42.1341L323.82 42.1351C324.299 42.2022 324.786 42.2396 325.28 42.2396C331.174 42.2396 335.95 37.4635 335.95 31.5697ZM336.95 31.5697C336.95 38.0158 331.726 43.2396 325.28 43.2396C324.734 43.2396 324.201 43.1982 323.681 43.1254V43.1244C317.988 42.3504 313.6 37.4728 313.6 31.5697C313.6 25.6667 317.988 20.7775 323.683 20.0043V20.0052C324.203 19.9326 324.735 19.89 325.28 19.89C331.726 19.89 336.949 25.1243 336.95 31.5697Z" fill="#130503"/>
<path d="M60.04 62.64H39.39V253.67H60.04V62.64Z" fill="#F4B65F"/>
<path d="M57.54 65.14V251.17H41.89V65.14H57.54ZM62.54 60.14H36.89V256.17H62.54V60.14Z" fill="#130503"/>
<path d="M318.3 62.56H298.17V253.41H318.3V62.56Z" fill="#F4B65F"/>
<path d="M315.8 65.06V250.91H300.67V65.06H315.8ZM320.8 60.06H295.67V255.91H320.8V60.06Z" fill="#130503"/>
<path d="M315.77 176.67V184.16C314.75 184.37 313.69 184.48 312.61 184.48C307.87 184.48 303.61 182.42 300.67 179.15V171.66C303.6 174.93 307.87 176.98 312.61 176.98C313.69 176.98 314.75 176.87 315.77 176.67Z" fill="#B18A50"/>
<path d="M41.89 176.67V184.16C42.95 184.37 44.04 184.48 45.17 184.48C50.08 184.48 54.5 182.42 57.54 179.15V171.66C54.5 174.93 50.08 176.98 45.17 176.98C44.05 176.98 42.96 176.87 41.89 176.67Z" fill="#B18A50"/>
<path d="M352.9 283.77C352.9 298.99 340.57 311.33 325.35 311.33C314.99 311.33 305.97 305.62 301.26 297.17H56.64C51.94 305.62 42.92 311.33 32.56 311.33C17.34 311.33 5 298.99 5 283.77C5 282.77 5.05 281.78 5.16 280.81C6.64 294.63 18.34 305.4 32.56 305.4C42.92 305.4 51.94 299.69 56.64 291.24H301.26C305.97 299.69 314.99 305.4 325.35 305.4C339.57 305.4 351.26 294.63 352.74 280.81C352.85 281.78 352.9 282.77 352.9 283.77Z" fill="#B18A50"/>
<path d="M353.39 32.56C353.39 47.78 341.06 60.12 325.84 60.12C325.14 60.12 324.44 60.09 323.75 60.03H35.17C34.47 60.09 33.76 60.12 33.05 60.12C17.83 60.12 5.48999 47.78 5.48999 32.56C5.48999 31.47 5.54999 30.39 5.67999 29.33C7.27999 43.03 18.92 53.66 33.05 53.66C33.76 53.66 34.47 53.63 35.17 53.57H323.75C324.44 53.63 325.14 53.66 325.84 53.66C339.97 53.66 351.6 43.03 353.2 29.33C353.33 30.39 353.39 31.47 353.39 32.56Z" fill="#B18A50"/>
<path d="M352.9 283.73C352.9 284.68 352.85 285.62 352.76 286.55C351.33 272.67 339.61 261.84 325.35 261.84C324.65 261.84 323.95 261.87 323.26 261.93H34.68C33.98 261.87 33.27 261.84 32.56 261.84C18.3 261.84 6.57 272.67 5.14 286.55C5.05 285.62 5 284.68 5 283.73C5 268.51 17.34 256.17 32.56 256.17C33.27 256.17 33.98 256.2 34.68 256.26H323.26C323.95 256.2 324.65 256.17 325.35 256.17C340.57 256.17 352.9 268.51 352.9 283.73Z" fill="#F9D58D"/>
<path d="M353.39 32.56C353.39 33.5 353.34 34.43 353.25 35.35C351.84 21.46 340.11 10.61 325.84 10.61C315.48 10.61 306.46 16.32 301.75 24.77H57.13C52.43 16.32 43.41 10.61 33.05 10.61C18.78 10.61 7.03999 21.46 5.62999 35.35C5.53999 34.43 5.48999 33.5 5.48999 32.56C5.48999 17.34 17.83 5 33.05 5C43.41 5 52.43 10.71 57.13 19.16H301.75C306.46 10.71 315.48 5 325.84 5C341.06 5 353.39 17.34 353.39 32.56Z" fill="#F9D58D"/>
<path d="M298.78 143.89H262.17V156.98H298.78V143.89Z" fill="#FEF7F6"/>
<path d="M296.29 146.39V154.48H264.68V146.39H296.29ZM301.29 141.39H259.68V159.48H301.29V141.39Z" fill="#130503"/>
<path d="M298.78 157H262.17V169.57H298.78V157Z" fill="#FEF7F6"/>
<path d="M296.29 159.5V167.07H264.68V159.5H296.29ZM301.29 154.5H259.68V172.07H301.29V154.5Z" fill="#130503"/>
<path d="M95.8801 143.89H59.3301V156.98H95.8801V143.89Z" fill="#FEF7F6"/>
<path d="M93.3801 146.39V154.48H61.8301V146.39H93.3801ZM98.3801 141.39H56.8301V159.48H98.3801V141.39Z" fill="#130503"/>
<path d="M95.8801 157H59.3301V169.57H95.8801V157Z" fill="#FEF7F6"/>
<path d="M93.3801 159.5V167.07H61.8301V159.5H93.3801ZM98.3801 154.5H56.8301V172.07H98.3801V154.5Z" fill="#130503"/>
<path d="M103.12 89.41C100.09 89.41 97.6201 86.94 97.6201 83.91V16.34C97.6201 13.31 100.09 10.84 103.12 10.84C106.15 10.84 108.62 13.31 108.62 16.34V83.9C108.62 86.93 106.15 89.4 103.12 89.4V89.41Z" fill="#FEF7F6"/>
<path d="M103.12 13.34C104.78 13.34 106.12 14.68 106.12 16.34V83.9C106.12 85.56 104.78 86.9 103.12 86.9C101.46 86.9 100.12 85.56 100.12 83.9V16.34C100.12 14.68 101.46 13.34 103.12 13.34ZM103.12 8.34C98.7101 8.34 95.1201 11.93 95.1201 16.34V83.9C95.1201 88.31 98.7101 91.9 103.12 91.9C107.53 91.9 111.12 88.31 111.12 83.9V16.34C111.12 11.93 107.53 8.34 103.12 8.34Z" fill="#130503"/>
<path d="M124.52 89.41C121.49 89.41 119.02 86.94 119.02 83.91V16.34C119.02 13.31 121.49 10.84 124.52 10.84C127.55 10.84 130.02 13.31 130.02 16.34V83.9C130.02 86.93 127.55 89.4 124.52 89.4V89.41Z" fill="#FEF7F6"/>
<path d="M124.52 13.34C126.18 13.34 127.52 14.68 127.52 16.34V83.9C127.52 85.56 126.18 86.9 124.52 86.9C122.86 86.9 121.52 85.56 121.52 83.9V16.34C121.52 14.68 122.86 13.34 124.52 13.34ZM124.52 8.34C120.11 8.34 116.52 11.93 116.52 16.34V83.9C116.52 88.31 120.11 91.9 124.52 91.9C128.93 91.9 132.52 88.31 132.52 83.9V16.34C132.52 11.93 128.93 8.34 124.52 8.34Z" fill="#130503"/>
<path d="M146.24 89.41C143.21 89.41 140.74 86.94 140.74 83.91V16.34C140.74 13.31 143.21 10.84 146.24 10.84C149.27 10.84 151.74 13.31 151.74 16.34V83.9C151.74 86.93 149.27 89.4 146.24 89.4V89.41Z" fill="#FEF7F6"/>
<path d="M146.24 13.34C147.9 13.34 149.24 14.68 149.24 16.34V83.9C149.24 85.56 147.9 86.9 146.24 86.9C144.58 86.9 143.24 85.56 143.24 83.9V16.34C143.24 14.68 144.58 13.34 146.24 13.34ZM146.24 8.34C141.83 8.34 138.24 11.93 138.24 16.34V83.9C138.24 88.31 141.83 91.9 146.24 91.9C150.65 91.9 154.24 88.31 154.24 83.9V16.34C154.24 11.93 150.65 8.34 146.24 8.34Z" fill="#130503"/>
<path d="M179.21 89.41C176.18 89.41 173.71 86.94 173.71 83.91V16.34C173.71 13.31 176.18 10.84 179.21 10.84C182.24 10.84 184.71 13.31 184.71 16.34V83.9C184.71 86.93 182.24 89.4 179.21 89.4V89.41Z" fill="#FEF7F6"/>
<path d="M179.21 13.34C180.87 13.34 182.21 14.68 182.21 16.34V83.9C182.21 85.56 180.87 86.9 179.21 86.9C177.55 86.9 176.21 85.56 176.21 83.9V16.34C176.21 14.68 177.55 13.34 179.21 13.34ZM179.21 8.34C174.8 8.34 171.21 11.93 171.21 16.34V83.9C171.21 88.31 174.8 91.9 179.21 91.9C183.62 91.9 187.21 88.31 187.21 83.9V16.34C187.21 11.93 183.62 8.34 179.21 8.34Z" fill="#130503"/>
<path d="M200.39 89.41C197.36 89.41 194.89 86.94 194.89 83.91V16.34C194.89 13.31 197.36 10.84 200.39 10.84C203.42 10.84 205.89 13.31 205.89 16.34V83.9C205.89 86.93 203.42 89.4 200.39 89.4V89.41Z" fill="#FEF7F6"/>
<path d="M200.39 13.34C202.05 13.34 203.39 14.68 203.39 16.34V83.9C203.39 85.56 202.05 86.9 200.39 86.9C198.73 86.9 197.39 85.56 197.39 83.9V16.34C197.39 14.68 198.73 13.34 200.39 13.34ZM200.39 8.34C195.98 8.34 192.39 11.93 192.39 16.34V83.9C192.39 88.31 195.98 91.9 200.39 91.9C204.8 91.9 208.39 88.31 208.39 83.9V16.34C208.39 11.93 204.8 8.34 200.39 8.34Z" fill="#130503"/>
<path d="M233.26 89.41C230.23 89.41 227.76 86.94 227.76 83.91V16.34C227.76 13.31 230.23 10.84 233.26 10.84C236.29 10.84 238.76 13.31 238.76 16.34V83.9C238.76 86.93 236.29 89.4 233.26 89.4V89.41Z" fill="#FEF7F6"/>
<path d="M233.26 13.34C234.92 13.34 236.26 14.68 236.26 16.34V83.9C236.26 85.56 234.92 86.9 233.26 86.9C231.6 86.9 230.26 85.56 230.26 83.9V16.34C230.26 14.68 231.6 13.34 233.26 13.34ZM233.26 8.34C228.85 8.34 225.26 11.93 225.26 16.34V83.9C225.26 88.31 228.85 91.9 233.26 91.9C237.67 91.9 241.26 88.31 241.26 83.9V16.34C241.26 11.93 237.67 8.34 233.26 8.34Z" fill="#130503"/>
<path d="M254.49 89.41C251.46 89.41 248.99 86.94 248.99 83.91V16.34C248.99 13.31 251.46 10.84 254.49 10.84C257.52 10.84 259.99 13.31 259.99 16.34V83.9C259.99 86.93 257.52 89.4 254.49 89.4V89.41Z" fill="#FEF7F6"/>
<path d="M254.49 13.34C256.15 13.34 257.49 14.68 257.49 16.34V83.9C257.49 85.56 256.15 86.9 254.49 86.9C252.83 86.9 251.49 85.56 251.49 83.9V16.34C251.49 14.68 252.83 13.34 254.49 13.34ZM254.49 8.34C250.08 8.34 246.49 11.93 246.49 16.34V83.9C246.49 88.31 250.08 91.9 254.49 91.9C258.9 91.9 262.49 88.31 262.49 83.9V16.34C262.49 11.93 258.9 8.34 254.49 8.34Z" fill="#130503"/>
<path d="M163.2 17.19H152.07V84.28H163.2V17.19Z" fill="#FEF7F6"/>
<path d="M160.7 19.69V81.78H154.57V19.69H160.7ZM165.7 14.69H149.57V86.78H165.7V14.69Z" fill="#130503"/>
<path d="M216.87 17.19H205.74V84.28H216.87V17.19Z" fill="#FEF7F6"/>
<path d="M214.37 19.69V81.78H208.24V19.69H214.37ZM219.37 14.69H203.24V86.78H219.37V14.69Z" fill="#130503"/>
<path d="M254.49 305.41C251.46 305.41 248.99 302.94 248.99 299.91V232.34C248.99 229.31 251.46 226.84 254.49 226.84C257.52 226.84 259.99 229.31 259.99 232.34V299.91C259.99 302.94 257.52 305.41 254.49 305.41Z" fill="#FEF7F6"/>
<path d="M254.49 229.34C256.15 229.34 257.49 230.68 257.49 232.34V299.9C257.49 301.56 256.15 302.9 254.49 302.9C252.83 302.9 251.49 301.56 251.49 299.9V232.34C251.49 230.68 252.83 229.34 254.49 229.34ZM254.49 224.34C250.08 224.34 246.49 227.93 246.49 232.34V299.9C246.49 304.31 250.08 307.9 254.49 307.9C258.9 307.9 262.49 304.31 262.49 299.9V232.34C262.49 227.93 258.9 224.34 254.49 224.34Z" fill="#130503"/>
<path d="M233.09 305.41C230.06 305.41 227.59 302.94 227.59 299.91V232.34C227.59 229.31 230.06 226.84 233.09 226.84C236.12 226.84 238.59 229.31 238.59 232.34V299.91C238.59 302.94 236.12 305.41 233.09 305.41Z" fill="#FEF7F6"/>
<path d="M233.09 229.34C234.75 229.34 236.09 230.68 236.09 232.34V299.9C236.09 301.56 234.75 302.9 233.09 302.9C231.43 302.9 230.09 301.56 230.09 299.9V232.34C230.09 230.68 231.43 229.34 233.09 229.34ZM233.09 224.34C228.68 224.34 225.09 227.93 225.09 232.34V299.9C225.09 304.31 228.68 307.9 233.09 307.9C237.5 307.9 241.09 304.31 241.09 299.9V232.34C241.09 227.93 237.5 224.34 233.09 224.34Z" fill="#130503"/>
<path d="M200.29 305.82C197.26 305.82 194.79 303.35 194.79 300.3V232.36C194.79 229.32 197.26 226.84 200.29 226.84C203.32 226.84 205.79 229.31 205.79 232.36V300.3C205.79 303.34 203.32 305.82 200.29 305.82Z" fill="#FEF7F6"/>
<path d="M200.29 229.34C201.95 229.34 203.29 230.69 203.29 232.36V300.3C203.29 301.97 201.95 303.32 200.29 303.32C198.63 303.32 197.29 301.97 197.29 300.3V232.36C197.29 230.69 198.63 229.34 200.29 229.34ZM200.29 224.34C195.88 224.34 192.29 227.94 192.29 232.36V300.3C192.29 304.72 195.88 308.32 200.29 308.32C204.7 308.32 208.29 304.72 208.29 300.3V232.36C208.29 227.94 204.7 224.34 200.29 224.34Z" fill="#130503"/>
<path d="M211.87 232.34V299.91H210.87V232.34H211.87Z" fill="#130503"/>
<path d="M178.41 305.41C175.38 305.41 172.91 302.94 172.91 299.91V232.34C172.91 229.31 175.38 226.84 178.41 226.84C181.44 226.84 183.91 229.31 183.91 232.34V299.91C183.91 302.94 181.44 305.41 178.41 305.41Z" fill="#FEF7F6"/>
<path d="M178.41 229.34C180.07 229.34 181.41 230.68 181.41 232.34V299.9C181.41 301.56 180.07 302.9 178.41 302.9C176.75 302.9 175.41 301.56 175.41 299.9V232.34C175.41 230.68 176.75 229.34 178.41 229.34ZM178.41 224.34C174 224.34 170.41 227.93 170.41 232.34V299.9C170.41 304.31 174 307.9 178.41 307.9C182.82 307.9 186.41 304.31 186.41 299.9V232.34C186.41 227.93 182.82 224.34 178.41 224.34Z" fill="#130503"/>
<path d="M157.22 305.41C154.19 305.41 151.72 302.94 151.72 299.91V232.34C151.72 229.31 154.19 226.84 157.22 226.84C160.25 226.84 162.72 229.31 162.72 232.34V299.91C162.72 302.94 160.25 305.41 157.22 305.41Z" fill="#FEF7F6"/>
<path d="M157.22 229.34C158.88 229.34 160.22 230.68 160.22 232.34V299.9C160.22 301.56 158.88 302.9 157.22 302.9C155.56 302.9 154.22 301.56 154.22 299.9V232.34C154.22 230.68 155.56 229.34 157.22 229.34ZM157.22 224.34C152.81 224.34 149.22 227.93 149.22 232.34V299.9C149.22 304.31 152.81 307.9 157.22 307.9C161.63 307.9 165.22 304.31 165.22 299.9V232.34C165.22 227.93 161.63 224.34 157.22 224.34Z" fill="#130503"/>
<path d="M124.35 305.41C121.32 305.41 118.85 302.94 118.85 299.91V232.34C118.85 229.31 121.32 226.84 124.35 226.84C127.38 226.84 129.85 229.31 129.85 232.34V299.91C129.85 302.94 127.38 305.41 124.35 305.41Z" fill="#FEF7F6"/>
<path d="M124.35 229.34C126.01 229.34 127.35 230.68 127.35 232.34V299.9C127.35 301.56 126.01 302.9 124.35 302.9C122.69 302.9 121.35 301.56 121.35 299.9V232.34C121.35 230.68 122.69 229.34 124.35 229.34ZM124.35 224.34C119.94 224.34 116.35 227.93 116.35 232.34V299.9C116.35 304.31 119.94 307.9 124.35 307.9C128.76 307.9 132.35 304.31 132.35 299.9V232.34C132.35 227.93 128.76 224.34 124.35 224.34Z" fill="#130503"/>
<path d="M103.12 305.41C100.09 305.41 97.6201 302.94 97.6201 299.91V232.34C97.6201 229.31 100.09 226.84 103.12 226.84C106.15 226.84 108.62 229.31 108.62 232.34V299.91C108.62 302.94 106.15 305.41 103.12 305.41Z" fill="#FEF7F6"/>
<path d="M103.12 229.34C104.78 229.34 106.12 230.68 106.12 232.34V299.9C106.12 301.56 104.78 302.9 103.12 302.9C101.46 302.9 100.12 301.56 100.12 299.9V232.34C100.12 230.68 101.46 229.34 103.12 229.34ZM103.12 224.34C98.7101 224.34 95.1201 227.93 95.1201 232.34V299.9C95.1201 304.31 98.7101 307.9 103.12 307.9C107.53 307.9 111.12 304.31 111.12 299.9V232.34C111.12 227.93 107.53 224.34 103.12 224.34Z" fill="#130503"/>
<path d="M217.11 233.19H205.98V299.04H217.11V233.19Z" fill="#FEF7F6"/>
<path d="M214.61 235.69V296.54H208.48V235.69H214.61ZM219.61 230.69H203.48V301.54H219.61V230.69Z" fill="#130503"/>
<path d="M151.87 231.88H140.74V298.97H151.87V231.88Z" fill="#FEF7F6"/>
<path d="M149.37 234.38V296.47H143.24V234.38H149.37ZM154.37 229.38H138.24V301.47H154.37V229.38Z" fill="#130503"/>
<path d="M100.58 84.32H257.28C259.9 84.32 262.03 86.45 262.03 89.07V237.75C262.03 240.37 259.9 242.5 257.28 242.5H100.58C97.9601 242.5 95.8301 240.37 95.8301 237.75V89.07C95.8301 86.45 97.9601 84.32 100.58 84.32Z" fill="#FEF7F6"/>
<path d="M257.28 86.82C258.52 86.82 259.53 87.83 259.53 89.07V237.75C259.53 238.99 258.52 240 257.28 240H100.58C99.3401 240 98.3301 238.99 98.3301 237.75V89.07C98.3301 87.83 99.3401 86.82 100.58 86.82H257.28ZM257.28 81.82H100.58C96.5801 81.82 93.3301 85.07 93.3301 89.07V237.75C93.3301 241.75 96.5801 245 100.58 245H257.28C261.28 245 264.53 241.75 264.53 237.75V89.07C264.53 85.07 261.28 81.82 257.28 81.82Z" fill="#130503"/>
<mask id="mask0_27_845" style="mask-type:luminance" maskUnits="userSpaceOnUse" x="107" y="95" width="67" height="76">
<path d="M172.17 95.88H109.31C108.443 95.88 107.74 96.5829 107.74 97.45V168.51C107.74 169.377 108.443 170.08 109.31 170.08H172.17C173.037 170.08 173.74 169.377 173.74 168.51V97.45C173.74 96.5829 173.037 95.88 172.17 95.88Z" fill="white"/>
</mask>
<g mask="url(#mask0_27_845)">
<path d="M201.14 90.92H75.1602V174.91H201.14V90.92Z" fill="#6056EB"/>
<path d="M75.1601 137.11L77.7901 132.74C80.4401 128.39 85.7001 119.65 90.9501 115.37C96.2001 111.07 101.43 111.21 106.68 114.01C111.93 116.81 117.19 122.27 122.44 125.77C127.69 129.27 132.92 130.81 138.17 128.32C143.42 125.81 148.68 119.29 153.93 119.29C159.18 119.29 164.41 125.81 169.66 125.7C174.91 125.59 180.17 118.81 185.42 119.02C190.67 119.23 195.9 126.43 198.51 130.01L201.13 133.61V175.05H75.1501V137.11H75.1601Z" fill="#F0BE8F"/>
<path d="M75.1601 140.89L77.7901 141.84C80.4401 142.81 85.7001 144.71 90.9501 144.77C96.2001 144.81 101.43 142.99 106.68 142.11C111.93 141.21 117.19 141.27 122.44 142.25C127.69 143.23 132.92 145.13 138.17 146.03C143.42 146.91 148.68 146.77 153.93 147.08C159.18 147.37 164.41 148.13 169.66 146.98C174.91 145.83 180.17 142.81 185.42 143.69C190.67 144.57 195.9 149.39 198.51 151.78L201.13 154.19V175.05H75.1501V140.89H75.1601Z" fill="#D4422E"/>
</g>
<mask id="mask1_27_845" style="mask-type:luminance" maskUnits="userSpaceOnUse" x="183" y="156" width="67" height="75">
<path d="M248.31 156.78H185.45C184.583 156.78 183.88 157.483 183.88 158.35V229.09C183.88 229.957 184.583 230.66 185.45 230.66H248.31C249.177 230.66 249.88 229.957 249.88 229.09V158.35C249.88 157.483 249.177 156.78 248.31 156.78Z" fill="white"/>
</mask>
<g mask="url(#mask1_27_845)">
<path d="M284.4 151.65H158.42V235.64H284.4V151.65Z" fill="#6056EB"/>
<path d="M158.42 187.07L161.05 185.01C163.7 182.97 168.96 178.85 174.21 179.51C179.46 180.17 184.69 185.57 189.94 185.64C195.19 185.71 200.45 180.45 205.7 177.37C210.95 174.29 216.18 173.39 221.43 176.47C226.68 179.55 231.94 186.6 237.19 190.8C242.44 195 247.67 196.34 252.92 194.1C258.17 191.86 263.43 186.04 268.68 185.34C273.93 184.64 279.16 189.06 281.77 191.29L284.39 193.5V235.77H158.41V187.06L158.42 187.07Z" fill="#F0BE8F"/>
<path d="M158.42 216.33L161.05 213.49C163.7 210.63 168.96 204.95 174.21 201.68C179.46 198.42 184.69 197.58 189.94 197.65C195.19 197.72 200.45 198.7 205.7 202.1C210.95 205.52 216.18 211.34 221.43 212.58C226.68 213.81 231.94 210.45 237.19 209.02C242.44 207.61 247.67 208.11 252.92 207.86C258.17 207.61 263.43 206.57 268.68 206.25C273.93 205.93 279.16 206.29 281.77 206.49L284.39 206.67V235.79H158.41V216.33H158.42Z" fill="#D4422E"/>
</g>
<mask id="mask2_27_845" style="mask-type:luminance" maskUnits="userSpaceOnUse" x="147" y="179" width="27" height="52">
<path d="M172.17 179.41H148.98C148.113 179.41 147.41 180.113 147.41 180.98V229.27C147.41 230.137 148.113 230.84 148.98 230.84H172.17C173.037 230.84 173.74 230.137 173.74 229.27V180.98C173.74 180.113 173.037 179.41 172.17 179.41Z" fill="white"/>
</mask>
<g mask="url(#mask2_27_845)">
<path d="M203.81 178.6H124.36V231.57H203.81V178.6Z" fill="#6056EB"/>
<path d="M124.36 207.47L126.02 207.29C127.69 207.11 131.01 206.76 134.32 205.26C137.63 203.76 140.93 201.11 144.24 200.65C147.55 200.2 150.87 201.93 154.18 201.89C157.49 201.85 160.79 200.03 164.1 198.57C167.41 197.11 170.73 196.02 174.04 196.14C177.35 196.25 180.65 197.58 183.96 197.23C187.27 196.88 190.59 194.85 193.9 194.78C197.21 194.73 200.51 196.63 202.15 197.6L203.8 198.55V231.65H124.35V207.46L124.36 207.47Z" fill="#F0BE8F"/>
<path d="M124.36 210.56L126.02 211.78C127.69 213.01 131.01 215.44 134.32 216.06C137.63 216.68 140.93 215.48 144.24 215.26C147.55 215.04 150.87 215.8 154.18 215.37C157.49 214.94 160.79 213.32 164.1 213.43C167.41 213.54 170.73 215.35 174.04 216.33C177.35 217.31 180.65 217.42 183.96 216.94C187.27 216.46 190.59 215.36 193.9 214.67C197.21 213.98 200.51 213.68 202.15 213.54L203.8 213.39V231.66H124.35V210.56H124.36Z" fill="#D4422E"/>
</g>
<mask id="mask3_27_845" style="mask-type:luminance" maskUnits="userSpaceOnUse" x="224" y="95" width="26" height="53">
<path d="M248.31 95.88H226.35C225.483 95.88 224.78 96.5829 224.78 97.45V145.74C224.78 146.607 225.483 147.31 226.35 147.31H248.31C249.177 147.31 249.88 146.607 249.88 145.74V97.45C249.88 96.5829 249.177 95.88 248.31 95.88Z" fill="white"/>
</mask>
<g mask="url(#mask3_27_845)">
<path d="M281.29 94.92H201.39V148.19H281.29V94.92Z" fill="#6056EB"/>
<path d="M201.39 123.86L203.06 121.22C204.74 118.59 208.08 113.32 211.4 112.79C214.72 112.26 218.05 116.47 221.38 116.7C224.71 116.94 228.05 113.21 231.38 113.73C234.71 114.25 238.03 119.01 241.36 118.88C244.69 118.75 248.03 113.72 251.36 113.04C254.69 112.36 258.01 116.03 261.34 117.98C264.67 119.93 268.01 120.16 271.34 118.97C274.67 117.78 277.99 115.14 279.64 113.82L281.3 112.51V148.29H201.4V123.88L201.39 123.86Z" fill="#F0BE8F"/>
<path d="M201.39 123.42L203.06 124.59C204.74 125.75 208.08 128.1 211.4 129.77C214.72 131.44 218.05 132.45 221.38 131.37C224.71 130.29 228.05 127.13 231.38 127.53C234.71 127.93 238.03 131.89 241.36 133.4C244.69 134.91 248.03 133.97 251.36 132.8C254.69 131.63 258.01 130.24 261.34 130.55C264.67 130.86 268.01 132.87 271.34 131.95C274.67 131.03 277.99 127.18 279.64 125.27L281.3 123.34V148.29H201.4V123.43L201.39 123.42Z" fill="#D4422E"/>
</g>
<path d="M136.59 179.59H109.31C108.443 179.59 107.74 180.293 107.74 181.16V213.99C107.74 214.857 108.443 215.56 109.31 215.56H136.59C137.457 215.56 138.16 214.857 138.16 213.99V181.16C138.16 180.293 137.457 179.59 136.59 179.59Z" fill="#D4422E"/>
<path d="M136.59 225.51H109.31C108.443 225.51 107.74 226.213 107.74 227.08V229.27C107.74 230.137 108.443 230.84 109.31 230.84H136.59C137.457 230.84 138.16 230.137 138.16 229.27V227.08C138.16 226.213 137.457 225.51 136.59 225.51Z" fill="#F0BE8F"/>
<path d="M213.47 95.88H185.13C184.263 95.88 183.56 96.5829 183.56 97.45V101.81C183.56 102.677 184.263 103.38 185.13 103.38H213.47C214.337 103.38 215.04 102.677 215.04 101.81V97.45C215.04 96.5829 214.337 95.88 213.47 95.88Z" fill="#F0BE8F"/>
<path d="M213.23 112.48H185.13C184.263 112.48 183.56 113.183 183.56 114.05V145.6C183.56 146.467 184.263 147.17 185.13 147.17H213.23C214.097 147.17 214.8 146.467 214.8 145.6V114.05C214.8 113.183 214.097 112.48 213.23 112.48Z" fill="#D4422E"/>
<path d="M43.37 174.99C33.33 174.99 25.16 166.82 25.16 156.78C25.16 146.74 33.33 138.57 43.37 138.57C53.41 138.57 61.58 146.74 61.58 156.78C61.58 166.82 53.41 174.99 43.37 174.99Z" fill="#FEF7F6"/>
<path d="M43.37 141.06C52.05 141.06 59.08 148.1 59.08 156.77C59.08 165.44 52.04 172.48 43.37 172.48C34.7 172.48 27.66 165.44 27.66 156.77C27.66 148.1 34.7 141.06 43.37 141.06ZM43.37 136.06C31.95 136.06 22.66 145.35 22.66 156.77C22.66 168.19 31.95 177.48 43.37 177.48C54.79 177.48 64.08 168.19 64.08 156.77C64.08 145.35 54.79 136.06 43.37 136.06Z" fill="#130503"/>
<path d="M314.49 175C304.45 175 296.28 166.83 296.28 156.79C296.28 146.75 304.45 138.58 314.49 138.58C324.53 138.58 332.7 146.75 332.7 156.79C332.7 166.83 324.53 175 314.49 175Z" fill="#FEF7F6"/>
<path d="M314.49 141.07C323.17 141.07 330.2 148.11 330.2 156.78C330.2 165.45 323.16 172.49 314.49 172.49C305.82 172.49 298.78 165.45 298.78 156.78C298.78 148.11 305.82 141.07 314.49 141.07ZM314.49 136.07C303.07 136.07 293.78 145.36 293.78 156.78C293.78 168.2 303.07 177.49 314.49 177.49C325.91 177.49 335.2 168.2 335.2 156.78C335.2 145.36 325.91 136.07 314.49 136.07Z" fill="#130503"/>
<path d="M316.49 150.2V163.37H312.49V150.2H316.49Z" fill="#130503"/>
<path d="M321.08 154.79V158.79H307.9V154.79H321.08Z" fill="#130503"/>
<path d="M45.37 150.2V163.37H41.37V150.2H45.37Z" fill="#130503"/>
<path d="M49.95 154.79V158.79H36.78V154.79H49.95Z" fill="#130503"/>
<path d="M330.2 157.17C330.2 165.64 323.17 172.5 314.49 172.5C305.81 172.5 298.78 165.64 298.78 157.17C298.78 156.85 298.79 156.53 298.81 156.2C299.33 164.21 306.15 170.57 314.49 170.57C322.83 170.57 329.65 164.22 330.17 156.2C330.19 156.52 330.2 156.84 330.2 157.17Z" fill="#FEF7F6"/>
<path d="M59.08 157.17C59.08 165.64 52.05 172.5 43.37 172.5C34.69 172.5 27.66 165.64 27.66 157.17C27.66 156.85 27.67 156.53 27.69 156.2C28.21 164.21 35.03 170.57 43.37 170.57C51.71 170.57 58.53 164.22 59.05 156.2C59.07 156.52 59.08 156.84 59.08 157.17Z" fill="#FEF7F6"/>
</svg>
