<?xml version="1.0" encoding="UTF-8" standalone="no"?>
<!-- Created with Inkscape (http://www.inkscape.org/) -->

<svg
   width="33.820271mm"
   height="33.449249mm"
   viewBox="0 0 33.820271 33.449249"
   version="1.1"
   id="svg1"
   xml:space="preserve"
   xmlns="http://www.w3.org/2000/svg"
   xmlns:svg="http://www.w3.org/2000/svg"><defs
     id="defs1" /><g
     id="layer1"
     transform="translate(-69.938301,-39.967627)"><path
       style="fill:#000000"
       d="m 77.908541,73.252255 c -0.132609,-0.132608 -0.241107,-1.307873 -0.241107,-2.611699 v -2.370592 l -1.671046,-0.250589 c -2.113004,-0.316865 -3.295055,-0.928259 -4.451265,-2.302337 -1.407146,-1.672299 -1.714245,-3.453068 -1.577167,-9.145492 0.100058,-4.155099 0.251599,-5.397873 0.791745,-6.493037 0.872592,-1.769209 2.807716,-3.020794 5.088154,-3.290878 l 1.819579,-0.215502 v -3.302251 -3.30225 h 9.172222 9.172222 v 3.351389 3.351389 h 0.92921 c 2.862296,0 5.703622,2.124593 6.453682,4.825726 0.47985,1.728042 0.48688,10.114695 0.01,11.83207 -0.72066,2.59482 -2.72526,4.241819 -5.707074,4.688969 l -1.656356,0.248386 -0.102885,2.519787 -0.102886,2.519786 -8.842921,0.09412 c -4.863606,0.05176 -8.951418,-0.01438 -9.084027,-0.146991 z m 15.281115,-7.355459 v -4.7625 h -6.35 -6.35 v 4.7625 4.762501 h 6.35 6.35 z m -9.817832,1.279236 c -0.266512,-0.168953 -0.418916,-0.738136 -0.352778,-1.317514 l 0.116444,-1.020055 h 3.704166 3.704167 l 0.116443,1.020055 c 0.06614,0.579378 -0.08627,1.148561 -0.352778,1.317514 -0.258071,0.163603 -1.818596,0.29746 -3.467832,0.29746 -1.649236,0 -3.20976,-0.133857 -3.467832,-0.29746 z m -5.629434,-5.424375 0.101433,-3.263195 h 8.995833 8.995833 l 0.101433,3.263195 0.101433,3.263195 h 1.244676 c 2.992489,0 3.667949,-1.411193 3.667189,-7.661587 -6.1e-4,-4.975786 -0.45652,-6.573759 -2.11612,-7.416982 -0.671126,-0.340991 -3.64185,-0.426492 -12.427832,-0.357686 l -11.545887,0.09042 -0.977724,0.978121 c -0.942296,0.94268 -0.982282,1.131809 -1.103551,5.219622 -0.215698,7.270866 0.491834,9.148092 3.447944,9.148092 h 1.413908 z m 17.090197,-5.928453 c -1.069001,-0.840877 -1.176924,-1.598248 -0.388205,-2.724302 0.678041,-0.968039 2.284818,-1.040032 3.10032,-0.138912 1.723818,1.904798 -0.690387,4.453506 -2.712115,2.863214 z M 93.189656,44.730128 V 42.78985 h -6.35 -6.35 v 1.940278 1.940278 h 6.35 6.35 z"
       id="path1" /></g></svg>
